<svg width="181" height="182" viewBox="0 0 181 182" fill="none" xmlns="http://www.w3.org/2000/svg">
<path d="M89.8968 86.698L90.5564 89.8545C90.9046 91.2154 91.3385 92.8199 91.8825 94.6891C92.4264 96.5582 93.1853 98.5706 94.0266 100.781C98.1279 111.655 103.06 122.194 108.779 132.308C111.98 137.773 115.7 142.918 119.888 147.669C123.637 151.996 128.114 155.634 133.119 158.416C135.194 159.554 137.386 160.466 139.656 161.136C141.432 161.67 143.255 162.037 145.099 162.233L147.154 162.353L148.677 162.353L149.97 162.326L149.52 155.448L148.522 155.477L147.343 155.519C146.884 155.462 146.359 155.433 145.744 155.41C144.306 155.271 142.882 155.019 141.485 154.658C139.636 154.173 137.848 153.482 136.154 152.599C131.719 150.25 127.693 147.203 124.229 143.573C120.098 139.262 116.388 134.567 113.149 129.551C106.936 119.974 101.455 109.939 96.7551 99.5331C94.7899 95.2916 93.0158 91.8088 91.7479 89.3568L89.6974 85.5081L89.8968 86.698Z" fill="#386845"/>
<path d="M100.718 36.9282C99.3601 33.3577 96.872 30.3314 93.6326 28.3097C90.3933 26.2879 86.58 25.3815 82.7733 25.7284C78.9666 26.0754 75.375 27.6568 72.5449 30.2318C69.7147 32.8067 67.8012 36.2343 67.0954 39.9929C64.5592 52.7297 79.8471 67.4168 85.7441 77.6406C86.8646 79.6261 88.8699 83.4781 86.7246 84.9332C84.5794 86.3882 81.7508 83.0974 80.3268 81.3163C72.9997 72.0625 65.0435 52.5119 52.2562 50.1196C48.514 49.4112 44.6405 49.9396 41.2197 51.625C37.7989 53.3104 35.0165 56.0615 33.2917 59.4634C31.5668 62.8654 30.9933 66.7337 31.6575 70.4852C32.3218 74.2367 34.1878 77.6679 36.9742 80.2614C33.4132 81.6424 30.3961 84.1449 28.3796 87.3905C26.3631 90.6361 25.4568 94.4481 25.7977 98.2499C26.1387 102.052 27.7085 105.636 30.2695 108.462C32.8305 111.287 36.2434 113.199 39.992 113.909C52.7196 116.42 67.434 101.096 77.6671 95.1763C79.6301 94.0303 83.5304 92.013 84.9806 94.1559C86.4307 96.2988 83.1138 99.1592 81.3303 100.587C72.064 107.936 52.5029 115.936 50.0604 128.711C49.3147 132.472 49.8184 136.372 51.4948 139.815C53.1713 143.258 55.9285 146.057 59.3461 147.783C62.7637 149.51 66.6543 150.07 70.4248 149.378C74.1953 148.687 77.6388 146.781 80.2306 143.952C81.5991 147.513 84.0906 150.529 87.3281 152.543C90.5657 154.558 94.3732 155.461 98.1748 155.117C101.976 154.774 105.565 153.201 108.398 150.637C111.232 148.074 113.155 144.659 113.878 140.909C116.414 128.172 101.126 113.485 95.229 103.261C94.0842 101.254 92.079 97.4025 94.2242 95.9474C96.3695 94.4924 99.198 97.7832 100.646 99.5852C107.973 108.839 115.951 128.365 128.696 130.806C132.46 131.545 136.364 131.029 139.812 129.34C143.261 127.65 146.064 124.878 147.793 121.448C149.522 118.018 150.082 114.119 149.388 110.346C148.693 106.573 146.782 103.133 143.947 100.553C147.508 99.1721 150.525 96.6695 152.542 93.4239C154.558 90.1783 155.465 86.3663 155.124 82.5645C154.783 78.7627 153.213 75.178 150.652 72.3527C148.091 69.5273 144.678 67.6151 140.929 66.9052C128.226 64.4157 113.512 79.739 103.278 85.6591C101.291 86.7842 97.4152 88.8225 95.9651 86.6796C94.515 84.5367 97.8075 81.6552 99.6152 80.2479C108.882 72.8992 128.418 64.8788 130.861 52.1035C131.577 48.3537 131.054 44.4754 129.37 41.0545C127.687 37.6337 124.935 34.8562 121.53 33.1421C118.125 31.428 114.253 30.8703 110.498 31.5534C106.743 32.2364 103.311 34.1231 100.718 36.9282V36.9282Z" fill="#169E3B"/>
<path d="M107.76 43.4755L106.178 44.2295C104.279 45.2432 102.432 46.3515 100.644 47.5502L98.6761 48.9464L100.009 41.2774L98.4016 48.9215C98.1429 48.486 97.7047 47.7683 97.0726 46.8832C95.8468 45.0783 94.5152 43.3478 93.0848 41.7007L91.9018 40.4246C91.5427 39.9828 91.1481 39.5711 90.722 39.1936C89.8979 38.4819 89.1222 37.812 88.4435 37.2259C87.1346 36.0955 86.091 35.4911 86.091 35.4911C86.091 35.4911 86.9877 36.2655 88.2967 37.3959C88.9754 37.982 89.7268 38.6309 90.4703 39.485C90.8824 39.8409 91.1896 40.3183 91.5839 40.7437C91.9783 41.169 92.3273 41.5978 92.7249 42.0684C94.0651 43.7242 95.3129 45.453 96.4624 47.2467C97.3872 48.7239 97.9387 49.7515 97.9387 49.7515L96.5773 56.7178C96.2944 56.2614 95.887 55.6552 95.3519 54.8538C94.3609 53.4043 92.9304 51.5327 91.3642 49.6713L90.181 48.3951C89.7447 48.0183 89.4134 47.5201 89.0013 47.1643C88.1772 46.4525 87.4015 45.7827 86.7228 45.1965C85.4139 44.0661 84.3701 43.4616 84.3701 43.4616C84.3701 43.4616 85.267 44.2362 86.5759 45.3666C87.2546 45.9527 88.0061 46.6016 88.8544 47.3343C89.2545 47.7251 89.6333 48.1371 89.9891 48.5686C90.4254 48.9454 90.7358 49.4679 91.1301 49.8932C92.5574 51.7196 93.9218 53.6187 94.8466 55.0959C95.7714 56.5731 96.1854 57.2698 96.2921 57.4892L94.8579 64.3927C94.5992 63.9573 94.2161 63.3719 93.736 62.7029C92.5102 60.898 91.1786 59.1675 89.7482 57.5204L88.5652 56.2442C88.1942 55.8132 87.8002 55.4023 87.3854 55.0133C86.5612 54.3016 85.7856 53.6317 85.1069 53.0456C83.6931 52.0366 82.7543 51.3108 82.7543 51.3108C82.7543 51.3108 83.6511 52.0852 84.96 53.2156C85.6387 53.8018 86.4144 54.4716 87.1336 55.3048C87.5457 55.6606 87.8529 56.138 88.2473 56.5634C88.6416 56.9888 89.015 57.4384 89.3883 57.888C90.7286 59.5439 91.9762 61.2727 93.1257 63.0665C93.7918 64.1082 94.2366 64.9163 94.4678 65.2856L93.0128 72.2135C92.7541 71.778 92.4227 71.2798 91.9943 70.6978C90.7639 68.894 89.4398 67.156 88.0275 65.491L86.8444 64.2148C86.4081 63.838 86.0767 63.3398 85.6646 62.984C84.8405 62.2723 84.0649 61.6024 83.3862 61.0163C82.0772 59.8859 81.0335 59.2813 81.0335 59.2813C81.0335 59.2813 81.9305 60.0558 83.2394 61.1862C83.9181 61.7724 84.6937 62.4423 85.4129 63.2755C85.8176 63.6641 86.19 64.0851 86.5266 64.5341C86.9629 64.9109 87.2943 65.409 87.6886 65.8344C89.1159 67.6607 90.4803 69.5599 91.4051 71.0371C92.0162 71.9465 92.409 72.6674 92.6435 73.0819L90.5978 82.8498C90.7504 83.8986 90.6047 84.9699 90.177 85.9408C89.7494 86.9117 89.0573 87.7432 88.1799 88.3397C87.3026 88.9363 86.2754 89.2739 85.2163 89.3139C84.1571 89.354 83.1086 89.0948 82.1911 88.5661L72.342 86.8877C71.9784 86.5737 71.5402 85.8562 70.9081 84.9711C69.6619 83.2316 68.5076 81.4279 67.45 79.5674C67.209 79.0624 66.9228 78.5608 66.6576 78.0349C66.3845 77.5459 66.1429 77.0399 65.9345 76.5199C65.4978 75.5067 65.0677 74.5839 64.7796 73.7414L63.941 70.9393L64.6924 73.7933C64.9562 74.6148 65.3655 75.562 65.736 76.6029C66.1066 77.6439 66.2179 77.6128 66.438 78.1421L67.2094 79.6988C68.1999 81.6184 69.3129 83.4721 70.5417 85.2482C70.9281 85.8788 71.2806 86.3528 71.5603 86.764L64.6086 85.5524C64.2693 85.2594 63.7583 84.4789 63.0502 83.4857C61.804 81.7462 60.6497 79.9426 59.5921 78.082L58.7754 76.5286C58.5344 76.0236 58.2273 75.5464 58.0315 75.0381C57.8357 74.5298 57.1855 73.0776 56.9217 72.2561L56.0832 69.4541L56.8104 72.2872C57.0984 73.1296 57.4833 74.0557 57.8781 75.1176C58.0497 75.605 58.336 76.1067 58.5802 76.6569L59.3517 78.2136C60.3343 80.1259 61.4392 81.9725 62.6597 83.7421C63.1188 84.4354 63.5229 84.9965 63.8026 85.4076L56.8752 84.217C56.7055 84.0705 56.0767 83.2306 55.1682 81.9796C53.922 80.2401 52.7677 78.4364 51.7101 76.5759L50.9177 75.0434C50.6311 74.5506 50.3813 74.0374 50.1705 73.5076C49.758 72.5153 49.3277 71.5924 49.0397 70.7499L48.2011 67.9478L48.9525 70.8018C49.2163 71.6233 49.6255 72.5705 49.9961 73.6114C50.1919 74.1198 50.478 74.6213 50.698 75.1506L51.4695 76.7073C52.46 78.6269 53.5732 80.4807 54.8019 82.2569C55.3128 83.0373 55.7444 83.6645 56.0693 84.0723L49.003 82.8466C49.003 82.8466 48.3224 81.9196 47.3105 80.4944C46.0642 78.7549 44.9098 76.9511 43.8522 75.0905L43.0357 73.5372C42.7626 73.0483 42.521 72.5422 42.3126 72.0223C41.8758 71.009 41.4457 70.0862 41.1819 69.2647C40.651 67.5764 40.3433 66.4626 40.3433 66.4626L41.0705 69.2957C41.3343 70.1172 41.7435 71.0643 42.1141 72.1053C42.4846 73.1462 42.596 73.1152 42.8403 73.6654L43.6117 75.2221C44.6018 77.1338 45.6991 78.9876 46.8988 80.7749C47.5099 81.6843 48.0111 82.3291 48.2907 82.7403L41.3582 81.1636L48.9722 82.7351C48.6575 83.0995 47.8422 83.4555 46.956 84.0896C45.1471 85.3167 43.4143 86.6525 41.7668 88.0895L40.4644 89.2546C40.0868 89.6918 39.7092 90.1291 39.3526 90.542C38.6393 91.3679 37.9681 92.1451 37.4017 92.801L35.6414 95.1823L37.5714 92.9475C38.1378 92.2917 38.809 91.5144 39.5222 90.6886C39.9116 90.2829 40.3332 89.9096 40.7827 89.572L42.0852 88.4069C43.914 86.9753 45.8153 85.6065 47.294 84.6783C48.7726 83.7502 49.7978 83.1513 49.7978 83.1513L56.7624 84.5437L54.9174 85.7492C53.4453 86.7678 51.5922 88.1783 49.728 89.7489L48.4499 90.9349C48.0182 91.307 47.6067 91.7019 47.2169 92.1177C46.5037 92.9435 45.8324 93.7209 45.266 94.3767L43.5058 96.7579L45.3145 94.4186L47.4109 92.2852C47.8024 91.8842 48.215 91.5045 48.6471 91.1477L49.9738 90.0035C51.8026 88.572 53.704 87.2031 55.1826 86.275C56.6613 85.3468 57.3796 84.9071 57.5992 84.7998L64.4767 86.2442C64.162 86.6085 63.4759 86.8641 62.806 87.3458C61 88.5769 59.2672 89.9124 57.6166 91.3455L56.3142 92.5107C55.9366 92.9479 55.4378 93.2805 55.0812 93.6934C54.368 94.5193 53.6967 95.2966 53.1303 95.9524L51.3701 98.3336L53.3 96.0989C53.8664 95.4431 54.5377 94.6658 55.2509 93.84C55.6403 93.4344 56.0619 93.0609 56.5114 92.7234L57.8139 91.5583C59.6426 90.1267 61.544 88.7579 63.0226 87.8298L65.2648 86.4584L72.1666 87.9238L70.6461 88.9005C69.174 89.9191 67.321 91.3298 65.4569 92.9004L64.1787 94.0865C63.7844 94.4946 63.4133 94.9244 63.0669 95.3739C62.3536 96.1997 61.6824 96.977 61.116 97.6328L59.3556 100.014L61.2855 97.7793C61.8519 97.1234 62.5232 96.3461 63.2364 95.5203C63.6279 95.1193 64.0405 94.7396 64.4726 94.3828L65.7994 93.2386C67.6281 91.8071 69.5296 90.4384 71.0083 89.5102C71.6743 89.0508 72.3646 88.6277 73.0761 88.2427L82.8157 90.2929C84.8397 90.5635 86.7481 91.3897 88.3293 92.6798C88.9219 94.6305 88.9851 96.7048 88.5127 98.6903L86.8111 108.501C86.2059 109.025 85.5645 109.505 84.8919 109.939C83.1622 111.201 81.3644 112.366 79.5068 113.431L77.9523 114.251C77.447 114.493 76.9449 114.78 76.4363 114.977L73.6563 116.138L70.8743 116.959L73.6836 116.204C74.5297 115.96 75.4774 115.548 76.4946 115.155C77.0223 114.952 77.5368 114.717 78.0348 114.449L79.6378 113.671C81.5366 112.657 83.3835 111.549 85.1716 110.35L86.6647 109.307L85.4633 116.285L83.3939 117.848C81.967 118.863 80.0138 120.145 77.9847 121.318L76.4511 122.114C75.9249 122.381 75.4227 122.668 74.9141 122.865C74.4056 123.062 72.9978 123.712 72.155 124.002L69.3521 124.846L72.2067 124.089C73.0285 123.823 73.9762 123.412 74.9934 123.018C75.5237 122.822 76.0386 122.586 76.5336 122.313L78.1157 121.559C80.0145 120.545 81.8613 119.437 83.6494 118.238L85.3168 117.091L84.1121 124.023C83.9652 124.193 83.1243 124.824 81.8718 125.735C80.1394 126.981 78.3406 128.131 76.4835 129.182L74.9289 130.002C74.4236 130.244 73.9215 130.531 73.4129 130.728C72.399 131.167 71.4756 131.599 70.6328 131.889L67.8509 132.71L70.6603 131.955C71.5063 131.711 72.454 131.299 73.4712 130.906C73.9989 130.703 74.5134 130.468 75.0114 130.2L76.5935 129.446C78.6711 128.314 80.6971 127.096 82.1482 126.101C82.9295 125.589 83.5574 125.155 83.9657 124.83L82.7257 131.901C81.9082 132.42 81.1218 132.987 80.3706 133.599C78.629 134.849 76.8234 136.007 74.9612 137.069L73.4277 137.865C72.9345 138.153 72.4208 138.404 71.8908 138.616C70.8979 139.03 69.9744 139.463 69.1316 139.753L66.3287 140.597L69.1381 139.843C70.0051 139.574 70.9528 139.163 71.9699 138.769C72.503 138.58 73.0185 138.344 73.5102 138.064L75.0923 137.31C76.991 136.296 78.838 135.188 80.626 133.989L82.6179 132.613L81.0724 139.548L82.7047 131.925C83.0682 132.239 83.3772 133.057 84.0093 133.942C85.2351 135.747 86.5666 137.478 87.9971 139.125L89.2045 140.422C89.5625 140.865 89.957 141.276 90.3841 141.653C91.2083 142.365 91.9839 143.034 92.6384 143.6C94.0764 144.629 94.9911 145.334 94.9911 145.334C94.9911 145.334 94.1184 144.581 92.7852 143.429C92.1308 142.864 91.3551 142.194 90.6359 141.361C90.2238 141.005 89.7875 140.629 89.5222 140.103C89.257 139.577 88.6497 139.349 88.3812 138.778C86.9855 137.087 85.6891 135.316 84.4983 133.474C83.5735 131.997 83.0222 130.969 83.0222 130.969L84.4076 124.024C84.4076 124.024 85.0981 125.087 85.6089 125.867C86.5999 127.317 88.0305 129.188 89.5967 131.05L90.7797 132.326C91.216 132.702 91.5232 133.18 91.9353 133.536C92.7837 134.268 93.5593 134.938 94.2138 135.503C95.5469 136.655 96.5663 137.238 96.5663 137.238C96.5663 137.238 95.6938 136.485 94.3607 135.333C93.7062 134.768 92.9305 134.098 92.2113 133.265C91.8113 132.874 91.4325 132.462 91.0767 132.031C90.6404 131.654 90.33 131.132 89.9357 130.706C88.4841 128.859 87.1439 126.981 86.0737 125.378C85.0035 123.775 84.735 123.204 84.6282 122.985L86.0865 116.102C86.3452 116.537 86.7041 117.102 87.1842 117.771C88.41 119.576 89.7415 121.306 91.172 122.953L92.3792 124.25C92.7421 124.674 93.1279 125.078 93.5348 125.46C94.3832 126.193 95.1588 126.863 95.8133 127.428C97.1464 128.579 98.1658 129.163 98.1658 129.163C98.1658 129.163 97.2933 128.409 95.9601 127.258C95.3057 126.693 94.5301 126.023 93.8108 125.19C93.3988 124.834 93.0673 124.336 92.6971 123.931C92.327 123.527 91.9295 123.056 91.5561 122.607C90.1605 120.915 88.864 119.144 87.6732 117.303C87.0071 116.261 86.5624 115.453 86.3312 115.083L87.7862 108.156C88.1498 108.47 88.3765 109.089 88.8048 109.671C90.0353 111.475 91.3594 113.213 92.7717 114.878L93.9789 116.175C94.4152 116.552 94.8272 116.908 95.2393 117.264C96.0876 117.996 96.8633 118.666 97.5177 119.231C98.8509 120.383 99.8704 120.966 99.8704 120.966C99.8704 120.966 98.9977 120.213 97.6645 119.061C97.0101 118.496 96.2345 117.826 95.5152 116.993C95.1139 116.604 94.7352 116.192 94.3808 115.759C93.9445 115.382 93.6339 114.86 93.2395 114.434C91.788 112.587 90.4236 110.688 89.3777 109.106C88.7908 108.217 88.398 107.496 88.1393 107.061L90.185 97.2931C90.4799 95.2755 91.317 93.3749 92.6067 91.7939C94.5435 91.1641 96.6167 91.0888 98.5916 91.5768L108.441 93.2552C108.804 93.5692 109.242 94.2869 109.875 95.172C111.121 96.9115 112.275 98.7151 113.333 100.576L114.149 102.129C114.422 102.618 114.664 103.124 114.872 103.644C115.285 104.636 115.739 105.58 116.003 106.402L116.842 109.204L116.115 106.371C115.827 105.528 115.442 104.602 115.047 103.54C114.875 103.053 114.589 102.551 114.345 102.001L113.573 100.444C112.591 98.5319 111.486 96.6853 110.265 94.9157L109.247 93.3999L116.198 94.6115C116.513 94.8836 117.024 95.6641 117.757 96.6781C119.003 98.4176 120.157 100.221 121.215 102.082C121.456 102.587 121.742 103.088 122.007 103.614C122.294 104.107 122.544 104.62 122.754 105.15C123.167 106.143 123.597 107.065 123.885 107.908L124.724 110.71L123.972 107.856C123.709 107.034 123.299 106.087 122.929 105.046C122.558 104.005 122.447 104.036 122.227 103.507L121.455 101.95C120.458 100.031 119.352 98.1704 118.144 96.3766L116.98 94.7354L123.932 95.9469C124.102 96.0935 124.73 96.9334 125.614 98.1635C126.864 99.9004 128.019 101.704 129.073 103.567L129.889 105.121C130.162 105.609 130.404 106.115 130.612 106.635C131.049 107.649 131.479 108.572 131.743 109.393L132.582 112.195L131.855 109.362C131.566 108.52 131.181 107.593 130.811 106.552C130.615 106.044 130.329 105.543 130.085 104.992L129.313 103.436C128.331 101.523 127.226 99.6767 126.005 97.9071C125.494 97.1266 125.063 96.4994 124.738 96.0916L131.804 97.3174C131.804 97.3174 132.485 98.2444 133.496 99.6696C134.743 101.409 135.897 103.213 136.955 105.073C137.22 105.599 137.506 106.101 137.747 106.606C138.034 107.098 138.284 107.612 138.494 108.142C138.907 109.134 139.337 110.057 139.625 110.899L140.464 113.701L139.712 110.847C139.448 110.026 139.039 109.079 138.669 108.038C138.298 106.997 138.187 107.028 137.967 106.499L137.195 104.942C136.197 103.023 135.092 101.162 133.884 99.3681C133.297 98.4796 132.796 97.8348 132.492 97.4027L140.156 98.7205L132.542 97.1489L134.582 95.8154C136.382 94.5752 138.114 93.24 139.772 91.8156L141.05 90.6295C141.444 90.2213 141.815 89.7915 142.162 89.3421C142.875 88.5162 143.546 87.7389 144.112 87.0831L145.873 84.7018L143.943 86.9366L141.846 89.0699C141.455 89.4709 141.042 89.8506 140.61 90.2074L139.283 91.3516C137.618 92.6902 135.879 93.935 134.075 95.0801C132.599 96.0535 131.571 96.6072 131.571 96.6072L124.606 95.2148C124.606 95.2148 125.694 94.543 126.472 93.9851C128.281 92.758 130.014 91.4223 131.662 89.9854L132.964 88.8202C133.342 88.383 133.819 88.0747 134.197 87.6375C134.91 86.8116 135.582 86.0343 136.148 85.3785L137.908 82.9972L135.978 85.2319C135.412 85.8878 134.741 86.6651 133.906 87.3863C133.517 87.7919 133.095 88.1652 132.646 88.5028L131.343 89.6679C129.514 91.0995 127.613 92.4683 126.134 93.3965L123.718 94.8716L116.84 93.4273L118.511 92.3257C120.308 91.0815 122.04 89.7464 123.7 88.3258L124.978 87.1398C125.373 86.7316 125.744 86.3018 126.09 85.8524C126.803 85.0265 127.475 84.2492 128.041 83.5933L129.801 81.2121L127.871 83.4468L125.775 85.5802C125.384 85.9812 124.971 86.3609 124.539 86.7177L123.212 87.862C121.384 89.2936 119.482 90.6623 118.003 91.5904C116.985 92.2799 116.176 92.7264 115.761 92.9618L108.884 91.5174L110.38 90.5196C112.188 89.2914 113.921 87.9558 115.569 86.5199L116.872 85.3547C117.266 84.9467 117.637 84.5169 117.984 84.0674L119.934 81.8084L121.674 79.4514L119.765 81.6618C119.198 82.3177 118.527 83.0949 117.814 83.9208C117.457 84.3337 116.979 84.642 116.553 85.0374L115.227 86.1815C113.569 87.5256 111.838 88.7774 110.042 89.931L107.974 91.1984L98.2346 89.1482C97.1809 89.3115 96.1031 89.1729 95.1261 88.7486C94.1491 88.3243 93.3128 87.6316 92.7141 86.7507C92.1154 85.8698 91.7789 84.8368 91.7433 83.7712C91.7078 82.7056 91.9748 81.6511 92.5133 80.7299L94.236 70.8951L96.1341 69.4811C97.8732 68.2271 99.679 67.0685 101.543 66.0105L103.098 65.1905C103.603 64.9484 104.081 64.6401 104.59 64.4432L107.37 63.282L110.176 62.4825L107.342 63.2158C106.521 63.4814 105.573 63.8927 104.531 64.2656C103.999 64.4415 103.521 64.7499 102.991 64.9711L101.388 65.7492C99.4894 66.7629 97.6425 67.8712 95.8544 69.0699L94.3614 70.1129L95.5871 63.1566L97.6564 61.5934C99.3979 60.3432 101.203 59.1848 103.066 58.1229L104.599 57.3271C105.126 57.0607 105.603 56.7524 106.112 56.5555L108.871 55.4186L111.698 54.5949L108.844 55.3524C108.022 55.618 107.074 56.0294 106.033 56.4022C104.991 56.775 105.043 56.8622 104.493 57.1077L102.91 57.8616C101.012 58.8753 99.1647 59.9836 97.3766 61.1823L95.7335 62.35L96.9382 55.418C97.6479 54.8168 98.3887 54.2534 99.1576 53.7301C100.894 52.4723 102.7 51.3137 104.567 50.2596L106.122 49.4394C106.627 49.1973 107.105 48.8891 107.613 48.6922L110.393 47.5309L113.2 46.7316L110.366 47.4648C109.544 47.7304 108.596 48.1418 107.555 48.5146C106.513 48.8874 106.544 48.9988 106.015 49.22L104.433 49.9739C102.526 50.9955 100.672 52.1119 98.8778 53.3189L97.0603 54.5905L98.3005 47.5196C99.132 47.0172 99.927 46.4567 100.68 45.8425C102.421 44.5922 104.227 43.4338 106.089 42.3719L107.623 41.5761C108.149 41.3097 108.627 41.0015 109.135 40.8046L111.894 39.6677L114.722 38.8439L111.888 39.5771L109.056 40.6512C108.519 41.541 108.084 42.4885 107.76 43.4755V43.4755Z" fill="#386845"/>
</svg>
