<svg width="222" height="223" viewBox="0 0 222 223" fill="none" xmlns="http://www.w3.org/2000/svg">
<path d="M3.80697 99.3703C6.1424 101.885 9.11765 105.089 12.5728 108.809L21.6961 105.597C14.3605 103.107 8.24468 100.959 3.80697 99.3703Z" fill="#436850"/>
<path d="M26.2778 106.924L14.9191 111.057C18.4383 114.847 22.7511 118.797 27.4183 123.06L55.1524 115.203C44.3976 112.36 34.6094 109.516 26.2778 106.924Z" fill="#436850"/>
<path d="M60.6017 116.494L29.7668 125.242C36.5265 131.411 44.1413 137.876 52.2962 144.161L87.5325 122.472C78.1714 120.644 69.119 118.593 60.6017 116.494Z" fill="#436850"/>
<path d="M1.41842 93.9539C5.78698 95.6069 13.5117 98.3775 23.7504 101.636L14.9429 86.3979C10.4514 88.7727 5.95479 91.2807 1.41842 93.9539Z" fill="#436850"/>
<path d="M91.6684 123.25L54.7612 145.914C60.6535 150.386 66.8198 154.668 73.095 158.721L120.099 127.515C112.003 126.564 93.3568 123.543 91.6684 123.25Z" fill="#436850"/>
<path d="M124.513 127.97L75.7619 160.414C82.8196 164.798 90.1745 168.686 97.7738 172.051L153.604 129.825C143.648 129.575 133.943 128.901 124.513 127.97Z" fill="#436850"/>
<path d="M17.4583 85.088L27.6616 103.008C36.4937 105.584 46.5724 108.671 57.8597 111.534L33.9911 77.3044C28.6369 79.5823 23.07 82.186 17.4583 85.088Z" fill="#436850"/>
<path d="M158.109 129.683L100.664 173.153C110.607 177.428 121.164 180.115 131.951 181.116L185.605 127.95C176.48 129.071 167.299 129.65 158.109 129.683V129.683Z" fill="#436850"/>
<path d="M36.7732 76.0686L62.1568 112.484C70.6049 114.646 79.6946 116.599 89.0556 118.427L60.0257 67.7546C52.1251 70.0835 44.3617 72.8593 36.7732 76.0686Z" fill="#436850"/>
<path d="M190.261 127.347L135.742 181.316C140.021 181.459 144.305 181.197 148.538 180.533C173.832 176.289 194.265 157.313 208.876 123.469C202.749 125.116 196.534 126.411 190.261 127.347V127.347Z" fill="#436850"/>
<path d="M88.1153 61.8767L125.247 123.631C134.975 124.605 145.051 125.193 155.08 125.245L111.92 60.8134C103.972 60.4742 96.0065 60.83 88.1153 61.8767V61.8767Z" fill="#436850"/>
<path d="M115.672 61.1783L158.707 125.406C168.271 125.372 177.825 124.728 187.311 123.478L147.045 67.7788C144.447 66.8545 141.909 66.1322 139.011 65.2306C131.38 63.1426 123.565 61.7857 115.672 61.1783Z" fill="#436850"/>
<path d="M151.642 69.5398L190.623 123.161C197.166 122.152 203.643 120.743 210.017 118.944C196.14 96.8354 175.751 79.5801 151.642 69.5398Z" fill="#436850"/>
<path d="M62.6843 67.082L92.5893 119.251C94.1792 119.507 113.289 122.611 121.717 123.574L84.8628 62.396C77.3789 63.4817 69.9708 65.0469 62.6843 67.082Z" fill="#436850"/>
</svg>
