<svg width="68" height="86" viewBox="0 0 68 86" fill="none" xmlns="http://www.w3.org/2000/svg">
<path d="M68 13.1593C68 13.1593 61.5254 19.3556 51.6317 36.6863C41.7379 54.017 24.1023 68.7791 8.7578 62.8856C8.7578 62.8856 -5.34838 21.8713 68 13.1593Z" fill="#436850"/>
<path d="M51.5872 21.9808C41.8911 29.9682 32.4734 38.348 23.5096 47.108C14.8967 56.0626 5.34224 64.809 8.4511e-05 76.265C4.66725 64.4901 14.3355 55.5109 23.1465 46.7382C32.2171 38.0257 41.7297 29.7837 51.6471 22.0449L51.5872 21.9808Z" fill="black"/>
<path d="M16.8883 52.887C17.0574 49.3352 17.4522 45.7978 18.0702 42.2964C18.3049 40.9898 18.5872 39.6812 18.9168 38.4799C19.0909 37.8741 19.2567 37.2972 19.4142 36.7491C19.5717 36.201 19.721 35.6817 19.9589 35.2348C20.124 34.8097 20.3162 34.3955 20.5343 33.9949C20.6744 33.6753 20.8412 33.368 21.033 33.0764C21.3454 32.5884 21.5336 32.3146 21.5336 32.3146C21.5336 32.3146 21.3598 32.5926 21.0578 33.0992C20.8713 33.3929 20.7094 33.7015 20.5736 34.0218C20.4616 34.4112 20.2113 34.7921 20.056 35.2784C19.9006 35.7646 19.6874 36.2342 19.6165 36.8072C19.5457 37.3802 19.2932 37.9322 19.1191 38.538C18.7792 39.7207 18.5878 41.0398 18.3965 42.3589C18.2051 43.678 18.0323 44.9868 17.9133 46.2174C17.7943 47.448 17.7105 48.6107 17.6579 49.6105C17.5422 51.5915 17.5367 52.9172 17.5367 52.9172L16.8883 52.887Z" fill="black"/>
<path d="M18.5744 39.724L18.4466 39.5155C18.3348 39.3131 18.2384 39.1027 18.1581 38.886C18.0488 38.5881 17.9642 38.2818 17.9051 37.9701C17.8609 37.801 17.8266 37.6296 17.8023 37.4565C17.8479 37.2979 17.7676 37.0874 17.7554 36.9121C17.7304 36.7332 17.7196 36.5525 17.7229 36.3719L17.7338 35.8441C17.7486 35.6796 17.7542 35.5145 17.7508 35.3493L17.871 34.9311C17.9439 34.4055 18 34.0469 18 34.0469C18 34.0469 17.9769 34.3994 17.9289 34.9477C17.8957 35.0631 17.8542 35.2073 17.8995 35.3765C17.9448 35.5456 17.9033 35.6898 17.9155 35.8651L17.9418 36.3724C17.9469 36.552 17.9689 36.7309 18.0074 36.9065L18.077 37.4262L18.217 37.9192C18.304 38.2038 18.4065 38.4834 18.5238 38.7569C18.6433 38.9943 18.7423 39.1945 18.8186 39.3101L18.9547 39.4897L18.5744 39.724Z" fill="black"/>
<path d="M25.6562 44.5383C25.7784 41.9147 26.0695 39.3019 26.5276 36.716C26.6959 35.7494 26.9075 34.7952 27.1501 33.8968C27.2786 33.4497 27.3988 33.0314 27.519 32.6132C27.6392 32.1949 27.7429 31.8343 27.9332 31.4986C28.1236 31.163 28.2251 30.8642 28.3513 30.5882C28.4567 30.3544 28.5791 30.1286 28.7176 29.9128L29.0837 29.3466L28.7465 29.9211C28.6006 30.1375 28.4811 30.3705 28.3905 30.6151C28.2421 30.9131 28.1121 31.2199 28.0013 31.5338C27.9018 31.88 27.7899 32.2694 27.6739 32.6733C27.5578 33.0771 27.4376 33.4954 27.3091 33.9425C27.0562 34.8224 26.9168 35.7972 26.7671 36.7536C26.6174 37.7099 26.507 38.6931 26.4131 39.6186C26.3192 40.5441 26.2646 41.3872 26.2288 42.1108C26.1177 43.6404 26.1374 44.5517 26.1374 44.5517L25.6562 44.5383Z" fill="black"/>
<path d="M16.8507 52.7507C20.3865 53.2987 23.9542 53.6147 27.5309 53.6967C28.8692 53.7222 30.2054 53.7002 31.4528 53.6059C32.0704 53.5804 32.6714 53.5033 33.2497 53.4509C33.828 53.3985 34.3465 53.2821 34.8815 53.2172C35.33 53.1357 35.7735 53.0286 36.2097 52.8963C36.5502 52.8238 36.8834 52.7209 37.2055 52.5892L38.067 52.259L37.1993 52.5561C36.8286 52.6808 36.4468 52.7698 36.0591 52.8218C35.6217 52.9403 35.1775 53.0316 34.7288 53.0953C34.2413 53.1582 33.7125 53.256 33.1095 53.2857C32.5064 53.3154 31.9384 53.3863 31.3106 53.3933C30.0755 53.4443 28.7476 53.4374 27.4218 53.3687C26.096 53.2999 24.7641 53.1982 23.5313 53.0781C22.2985 52.958 21.1359 52.8112 20.1592 52.671C18.1769 52.3824 16.8864 52.1364 16.8864 52.1364L16.8507 52.7507Z" fill="black"/>
<path d="M25.3936 45.1817C27.9898 45.5853 30.6099 45.8167 33.2365 45.8743C34.202 45.9042 35.1685 45.8849 36.1319 45.8165C36.5884 45.8071 37.0469 45.7359 37.4641 45.6997C37.8813 45.6634 38.2676 45.5715 38.6415 45.5228C38.9706 45.4625 39.2961 45.3841 39.6165 45.2877C39.8721 45.2363 40.1209 45.1558 40.3581 45.048L40.9903 44.8081L40.3478 45.0295C40.1106 45.1227 39.8651 45.1933 39.6145 45.2403C39.2919 45.3278 38.9642 45.3953 38.6333 45.4423C38.2594 45.491 37.8773 45.5686 37.4498 45.5862C37.0223 45.6039 36.5823 45.6648 36.1259 45.6742C35.2089 45.7073 34.2238 45.7053 33.2553 45.6455C32.2868 45.5858 31.2852 45.5321 30.3725 45.4416L27.8801 45.1312C26.3769 44.9178 25.4704 44.751 25.4704 44.751L25.3936 45.1817Z" fill="black"/>
<path d="M35.1768 45.8696L35.3254 46.006C35.4503 46.114 35.585 46.2103 35.7278 46.2934C35.9279 46.4172 36.1377 46.5245 36.3553 46.6143L36.731 46.7223L37.1212 46.8344C37.2468 46.8861 37.3776 46.9237 37.5114 46.9466L37.8727 47.0504L38.2196 47.1501L38.5438 47.1652L39.2067 47.1996L38.5562 47.1219L38.2383 47.0305L37.5301 46.827C37.403 46.798 37.2776 46.7619 37.1544 46.719L36.7786 46.611L36.4173 46.5072C36.2228 46.4091 36.0352 46.2978 35.8559 46.1741C35.7311 46.0824 35.6138 45.9808 35.5052 45.8703L35.3814 45.7566L35.1768 45.8696Z" fill="black"/>
</svg>
