<svg width="145" height="184" viewBox="0 0 145 184" fill="none" xmlns="http://www.w3.org/2000/svg">
<path d="M0.000131484 28.0601C0.000131484 28.0601 13.8062 41.2728 34.9031 78.2277C55.9999 115.183 93.605 146.66 126.325 134.093C126.325 134.093 156.404 46.6372 0.000131484 28.0601Z" fill="#739072"/>
<path d="M34.9986 46.8688C55.6741 63.9007 75.7559 81.7691 94.8697 100.448C113.235 119.543 133.609 138.193 145 162.621C135.048 137.513 114.432 118.366 95.644 99.6599C76.3024 81.0818 56.0181 63.5072 34.8711 47.0053L34.9986 46.8688Z" fill="#12372A"/>
<path d="M108.988 112.773C108.628 105.199 107.786 97.6566 106.468 90.1903C105.968 87.4041 105.366 84.6137 104.663 82.0522C104.292 80.7604 103.938 79.5302 103.602 78.3615C103.266 77.1928 102.948 76.0856 102.441 75.1327C102.089 74.226 101.679 73.3429 101.214 72.4887C100.915 71.8071 100.559 71.1519 100.15 70.5302C99.4843 69.4896 99.083 68.9058 99.083 68.9058C99.083 68.9058 99.4535 69.4985 100.098 70.5787C100.495 71.205 100.84 71.863 101.13 72.546C101.369 73.3764 101.902 74.1886 102.234 75.2254C102.565 76.2623 103.02 77.2637 103.171 78.4855C103.322 79.7074 103.86 80.8844 104.231 82.1762C104.956 84.6981 105.364 87.5109 105.772 90.3236C106.18 93.1364 106.549 95.9272 106.803 98.5513C107.056 101.175 107.235 103.654 107.347 105.786C107.594 110.011 107.606 112.837 107.606 112.837L108.988 112.773Z" fill="#12372A"/>
<path d="M105.393 84.7061L105.665 84.2615C105.904 83.8301 106.109 83.3814 106.28 82.9193C106.513 82.2841 106.694 81.6309 106.82 80.9663C106.914 80.6057 106.987 80.2401 107.039 79.8711C106.942 79.5328 107.113 79.084 107.139 78.7103C107.192 78.3287 107.215 77.9435 107.208 77.5583L107.185 76.4329C107.154 76.0822 107.141 75.73 107.149 75.3779L106.892 74.486C106.737 73.3653 106.617 72.6006 106.617 72.6006C106.617 72.6006 106.667 73.3522 106.769 74.5214C106.84 74.7675 106.928 75.075 106.832 75.4357C106.735 75.7964 106.824 76.104 106.798 76.4777L106.741 77.5593C106.731 77.9424 106.684 78.3237 106.602 78.6982L106.453 79.8064L106.155 80.8577C105.969 81.4645 105.751 82.0608 105.5 82.644C105.246 83.1501 105.035 83.577 104.872 83.8235L104.582 84.2066L105.393 84.7061Z" fill="#12372A"/>
<path d="M90.2939 94.9714C90.0333 89.377 89.4127 83.8056 88.4358 78.2915C88.077 76.2304 87.6257 74.1959 87.1085 72.2802C86.8345 71.3268 86.5781 70.4348 86.3218 69.5429C86.0654 68.651 85.8445 67.8821 85.4386 67.1664C85.0327 66.4506 84.8162 65.8136 84.547 65.2251C84.3224 64.7265 84.0614 64.2451 83.7661 63.7847L82.9853 62.5774L83.7044 63.8025C84.0154 64.2639 84.2702 64.7607 84.4634 65.2824C84.78 65.9178 85.0571 66.5721 85.2933 67.2415C85.5055 67.9796 85.7441 68.81 85.9916 69.6711C86.2391 70.5323 86.4955 71.4242 86.7695 72.3776C87.3087 74.2537 87.6059 76.3325 87.9251 78.3717C88.2442 80.4109 88.4798 82.5074 88.68 84.4809C88.8802 86.4544 88.9966 88.2522 89.0731 89.7952C89.3098 93.0567 89.2678 94.9999 89.2678 94.9999L90.2939 94.9714Z" fill="#12372A"/>
<path d="M109.072 112.482C101.533 113.65 93.9251 114.324 86.2983 114.499C83.4448 114.554 80.5955 114.507 77.9355 114.306C76.6187 114.251 75.3371 114.087 74.1039 113.975C72.8708 113.863 71.7652 113.615 70.6245 113.477C69.668 113.303 68.7223 113.074 67.7922 112.793C67.0662 112.638 66.3556 112.419 65.6689 112.138L63.8318 111.434L65.682 112.067C66.4725 112.333 67.2867 112.523 68.1135 112.634C69.046 112.886 69.9933 113.081 70.9501 113.217C71.9895 113.351 73.117 113.56 74.403 113.623C75.6889 113.686 76.9001 113.837 78.2389 113.852C80.8724 113.961 83.704 113.946 86.531 113.8C89.358 113.653 92.1982 113.436 94.8269 113.18C97.4557 112.924 99.9347 112.611 102.017 112.312C106.244 111.697 108.996 111.172 108.996 111.172L109.072 112.482Z" fill="#12372A"/>
<path d="M90.8529 96.3417C85.3167 97.2023 79.7299 97.6957 74.1291 97.8187C72.0702 97.8824 70.0095 97.8412 67.955 97.6953C66.9817 97.6753 66.004 97.5235 65.1143 97.4462C64.2247 97.3689 63.401 97.1729 62.6038 97.069C61.902 96.9406 61.2079 96.7732 60.5248 96.5678C59.9798 96.4581 59.4492 96.2866 58.9433 96.0567L57.5952 95.5452L58.9653 96.0171C59.4711 96.216 59.9947 96.3666 60.5291 96.4667C61.2169 96.6532 61.9156 96.7971 62.6213 96.8975C63.4184 97.0014 64.2333 97.1667 65.1449 97.2044C66.0565 97.242 66.9946 97.372 67.9679 97.3919C69.9232 97.4626 72.0238 97.4582 74.089 97.3307C76.1542 97.2033 78.2899 97.089 80.2361 96.8959L85.5507 96.2341C88.7561 95.779 90.689 95.4232 90.689 95.4232L90.8529 96.3417Z" fill="#12372A"/>
<path d="M69.9888 97.8097L69.6721 98.1006C69.4057 98.331 69.1184 98.5361 68.814 98.7134C68.3873 98.9774 67.9398 99.2062 67.476 99.3976L66.6747 99.6279L65.8427 99.8671C65.575 99.9772 65.296 100.057 65.0106 100.106L64.2402 100.328L63.5006 100.54L62.8092 100.572L61.3957 100.646L62.7827 100.48L63.4607 100.285L64.9707 99.8513C65.2419 99.7893 65.5093 99.7125 65.772 99.621L66.5732 99.3907L67.3436 99.1693C67.7585 98.9602 68.1584 98.7229 68.5407 98.459C68.807 98.2634 69.0571 98.0468 69.2886 97.8112L69.5526 97.5689L69.9888 97.8097Z" fill="#12372A"/>
</svg>
