<svg width="377" height="377" viewBox="0 0 377 377" fill="none" xmlns="http://www.w3.org/2000/svg">
<path d="M110.927 246.882C110.699 243.914 109.583 241.44 108.513 241.383C109.659 241.375 110.651 238.885 110.866 235.853C111.081 232.821 110.874 230.122 109.761 229.893C110.82 230.09 112.47 227.849 113.118 224.893C113.765 221.938 113.764 219.143 112.792 218.741C113.85 219.122 115.64 217.076 116.796 214.132C117.951 211.189 118.057 208.459 117.118 208.003C118.144 208.437 120.096 206.489 121.456 203.633C122.817 200.776 123.15 198.036 122.157 197.548C123.15 198.036 125.177 196.206 126.689 193.404C128.201 190.602 128.674 187.872 127.671 187.341C128.631 187.883 130.755 186.075 132.321 183.306C133.887 180.536 134.414 177.839 133.443 177.254C134.414 177.839 136.495 176.042 138.147 173.251C139.8 170.46 140.295 167.817 139.324 167.232C139.546 167.326 139.792 167.346 140.026 167.288C141.773 166.416 143.166 164.972 143.974 163.197C145.583 160.416 146.067 157.73 145.107 157.188C146.11 157.72 148.246 155.955 149.747 153.11C151.248 150.265 151.656 147.643 150.685 147.058C151.667 147.503 153.802 145.738 155.098 142.806C156.394 139.874 156.521 137.414 155.713 136.742C156.761 136.896 158.485 134.958 159.662 132.101C160.839 129.244 160.437 126.502 159.531 125.992C160.601 126.049 162.099 123.937 162.877 120.95C163.654 117.962 163.036 115.274 162.021 114.883C163.08 114.896 164.396 112.601 164.892 109.591C165.388 106.581 164.522 103.816 163.42 103.63C164.469 103.6 165.784 101.121 165.687 97.9375C165.589 94.7537 164.831 92.0538 163.696 92.1049C164.215 91.9767 164.693 91.309 164.945 90.2844C165.709 91.1496 166.443 91.5182 166.984 91.2929C165.956 91.776 166.401 94.5074 167.937 97.3819C169.473 100.256 171.651 101.827 172.593 101.365C171.748 102.032 172.399 104.667 174.065 107.326C175.732 109.985 178.17 111.307 179.069 110.673C178.353 111.491 179.156 113.997 181.18 116.43C183.204 118.863 185.621 119.916 186.488 119.336C185.923 120.208 187.018 122.596 189.215 124.803C191.413 127.01 194.016 127.696 194.872 127.073C194.468 128.043 195.661 130.269 198.238 132.153C200.815 134.037 203.461 134.713 204.123 133.862C203.536 134.832 205.172 136.994 207.771 138.781C210.37 140.568 212.962 141.211 213.776 140.231C213.178 141.158 214.857 143.31 217.575 145.021C220.293 146.733 222.972 147.355 223.569 146.428C223.502 146.541 223.46 146.667 223.444 146.797C223.429 146.927 223.441 147.059 223.48 147.184C224.321 148.915 225.7 150.327 227.412 151.208C230.174 152.909 232.852 153.531 233.439 152.561C232.852 153.531 234.531 155.683 237.249 157.395C239.968 159.106 242.646 159.728 243.244 158.801C242.603 159.739 244.292 161.934 246.935 163.71C249.577 165.487 252.136 166.184 252.874 165.268C252.266 166.151 253.674 168.508 256.327 170.327C258.98 172.147 261.582 173.017 262.201 172.176C261.582 173.017 263.001 175.416 265.34 177.451C267.679 179.485 270.269 180.495 271.072 179.655C270.356 180.474 271.439 183.002 273.604 185.263C275.769 187.524 278.262 188.695 278.902 188.125C278.024 188.846 278.848 191.438 280.699 193.914C282.549 196.39 284.338 198.24 285.355 197.713C284.435 198.262 284.599 200.971 285.779 203.704C286.959 206.437 288.075 208.728 289.113 208.655C288.551 208.794 288.181 209.527 287.961 210.497C287.786 211.8 287.68 213.111 287.646 214.425C287.787 217.415 288.049 219.962 289.075 220.213L288.772 220.288C288.163 220.549 287.676 221.029 287.406 221.633C286.684 222.74 286.147 223.956 285.816 225.234C284.726 228.069 284.566 230.767 285.515 231.266C284.425 230.756 282.646 232.662 280.93 235.194C279.214 237.726 278.449 240.389 279.3 241.05C279.162 240.958 279.005 240.899 278.84 240.876C278.676 240.853 278.508 240.868 278.35 240.918C276.689 241.622 275.227 242.723 274.091 244.123C272.008 246.471 270.671 248.863 271.565 249.696C270.822 248.917 268.289 250.001 265.959 252.089C263.628 254.177 262.129 256.472 262.698 257.477C261.977 256.601 259.391 257.469 256.867 259.33C254.342 261.19 252.692 263.431 253.5 264.286C253.372 263.767 252.41 263.776 251.371 264.032C250.014 264.421 248.719 265.003 247.528 265.76C244.875 267.47 243.095 269.559 243.654 270.521C243.095 269.559 240.434 270.124 237.641 271.639C234.847 273.154 233.003 275.167 233.529 276.183C233.014 275.211 230.31 275.603 227.452 277.042C224.594 278.481 222.664 280.332 223.147 281.359C222.664 280.332 219.939 280.639 217.038 281.905C214.137 283.171 212.251 284.829 212.464 285.876C212.208 284.839 209.637 284.283 206.524 284.502C203.41 284.721 200.855 285.901 200.863 286.862C200.813 285.728 198.189 284.956 195.043 285.045C191.898 285.135 189.268 286.013 189.265 287.114C189.258 285.97 186.699 285.089 183.511 285.006C180.322 284.923 177.715 285.704 177.668 286.815C177.715 285.704 175.168 284.683 172.023 284.406C168.879 284.128 166.229 284.737 166.052 285.88C166.051 285.79 166.029 285.701 165.988 285.621C165.732 284.584 163.455 283.543 160.549 283.114C157.643 282.686 154.755 283.079 154.525 284.19C154.755 283.079 152.393 281.691 149.131 280.939C145.87 280.186 143.394 280.385 143.055 281.431C143.372 280.298 141.162 278.782 138.225 277.674C135.289 276.566 132.663 276.344 132.184 277.379C132.193 277.197 132.149 277.017 132.056 276.86C131.084 275.17 129.612 273.821 127.843 272.997C125.146 271.555 122.684 270.697 121.957 271.655C122.565 270.772 121.167 268.459 118.926 266.446C118.011 265.483 116.957 264.662 115.799 264.01C114.882 263.458 114.137 263.229 113.671 263.573C114.191 263.445 114.15 262.539 113.926 261.631C113.522 260.296 113.002 258.998 112.372 257.753C111.73 256.606 111.026 255.495 110.264 254.424C109.618 253.667 108.95 253.19 108.387 253.329C111.233 252.397 111.512 249.808 110.927 246.882Z" fill="#436850"/>
<path d="M170.704 110.447L211.177 286.056L211.07 285.625C211.232 287.241 211.475 288.848 211.8 290.44C212.174 291.952 212.558 293.507 212.931 295.018C213.811 298.109 215.011 301.099 216.512 303.941C218.066 306.894 220.078 309.583 222.473 311.909C224.163 313.526 226.065 314.897 228.124 315.985C229.767 316.853 231.712 315.922 232.324 314.167V314.167C232.927 312.438 232.002 310.569 230.392 309.698C226.738 307.721 223.723 304.704 221.753 300.997C220.372 298.572 219.26 296.004 218.438 293.338C218.107 291.999 217.766 290.616 217.371 289.018C217.036 287.676 216.791 286.312 216.639 284.937L216.532 284.505L170.704 110.447Z" fill="#12372A"/>
<path d="M214.308 283.679C214.308 283.679 219.194 280.227 225.817 274.513C229.134 271.586 233.015 268.153 237.049 264.224C241.211 260.18 245.154 255.917 248.861 251.454C250.846 249.268 252.541 246.833 254.364 244.55C256.187 242.266 257.763 239.723 259.186 237.493C260.609 235.263 261.925 232.784 263.165 230.553L266.159 224.085L268.145 218.37C268.642 216.91 269.008 215.408 269.24 213.883L270.107 209.957L269.089 213.829C268.754 215.344 268.308 216.833 267.756 218.283C267.059 219.921 266.328 221.798 265.5 223.835C264.672 225.873 263.368 227.845 262.226 230.097C261.084 232.35 259.434 234.407 257.989 236.734C256.544 239.062 254.515 241.259 252.854 243.456C251.193 245.653 249.359 247.894 247.169 249.993C243.334 254.272 239.265 258.337 234.98 262.168C230.926 265.827 226.948 269.055 223.567 271.723C216.632 277.102 211.888 280.198 211.888 280.198L214.308 283.679Z" fill="#12372A"/>
<path d="M254.486 243.74L255.34 243.85C256.176 243.88 257.014 243.857 257.847 243.781L259.48 243.698L261.211 243.271L264.888 242.363C266.072 241.953 267.223 241.455 268.33 240.871L271.232 239.421L274.068 238.079L271.114 239.13L268.073 240.201C266.914 240.581 265.728 240.874 264.525 241.077L260.902 241.651L259.345 242.036L257.918 242.022C257.065 241.912 256.394 241.985 255.854 241.844L255.023 241.637L254.486 243.74Z" fill="#12372A"/>
<path d="M207.083 252.559C207.083 252.559 210.642 248.381 215.938 241.757C222.227 233.71 228.099 225.346 233.53 216.698C236.496 211.979 239.247 207.129 241.64 202.505C243.859 198.273 245.85 193.926 247.606 189.483C248.369 187.554 248.872 185.688 249.407 184.135C249.868 182.734 250.252 181.308 250.556 179.864L251.39 176.175C251.39 176.175 250.985 177.513 250.362 179.821C249.995 181.241 249.543 182.638 249.008 184.005C248.376 185.535 247.818 187.369 246.916 189.104C244.986 193.407 242.836 197.609 240.476 201.693C237.856 206.144 234.922 210.809 231.719 215.313C225.923 223.6 219.695 231.578 213.06 239.214C207.679 245.492 203.872 249.411 203.872 249.411L207.083 252.559Z" fill="#12372A"/>
<path d="M199.238 222.096C199.238 222.096 202.07 218.876 205.859 213.77C210.433 207.517 214.565 200.953 218.224 194.127C220.158 190.473 221.881 186.712 223.384 182.862C224.071 180.997 224.834 179.25 225.315 177.481C225.796 175.713 226.374 174.149 226.715 172.553L227.604 168.346C227.815 167.267 227.96 166.175 228.036 165.077L228.381 162.197C228.381 162.197 228.226 163.243 227.896 165.066C227.759 166.147 227.565 167.221 227.312 168.281C226.973 169.51 226.58 170.891 226.218 172.401C225.856 173.911 225.149 175.506 224.602 177.383C224.055 179.259 223.196 180.8 222.467 182.493C220.823 186.061 218.887 189.747 216.799 193.379C212.858 199.907 208.463 206.153 203.649 212.07C199.655 216.906 196.803 219.856 196.803 219.856L199.238 222.096Z" fill="#12372A"/>
<path d="M190.169 186.481C190.169 186.481 190.635 185.953 191.395 184.941C192.155 183.928 193.252 182.42 194.457 180.61C195.138 179.65 195.766 178.654 196.337 177.626C196.946 176.559 197.685 175.46 198.261 174.263C199.601 171.77 200.807 169.208 201.875 166.588C203.026 164.006 203.996 161.348 204.776 158.631C205.586 156.308 206.227 153.929 206.691 151.513C207.537 147.317 208.076 144.48 208.076 144.48L206.4 151.447C205.788 153.805 205.026 156.121 204.118 158.381C203.243 161.034 202.161 163.615 200.882 166.1C199.698 168.634 198.377 171.103 196.924 173.494C196.293 174.598 195.608 175.669 194.87 176.704C194.164 177.75 193.621 178.709 192.958 179.56C191.634 181.262 190.603 182.662 189.768 183.556L188.476 185.02L190.169 186.481Z" fill="#12372A"/>
<path d="M213.316 279.662C213.316 279.662 207.589 279.151 199.034 277.598C194.757 276.821 189.734 275.816 184.485 274.454C178.91 273.057 173.416 271.354 168.03 269.352C165.287 268.471 162.643 267.245 159.955 266.213C157.268 265.181 154.765 263.783 152.282 262.654C149.8 261.526 147.622 259.955 145.442 258.752C143.263 257.549 141.409 255.99 139.63 254.734C137.851 253.478 136.429 251.996 135.049 250.87C133.885 249.844 132.797 248.734 131.796 247.549L129.093 244.596L131.644 247.678C132.59 248.904 133.627 250.057 134.746 251.128L138.99 255.305L144.651 259.635C146.786 261.033 149.062 262.441 151.403 263.926C153.743 265.41 156.344 266.647 158.955 267.927C161.567 269.206 164.178 270.486 167.039 271.475C172.398 273.7 177.872 275.637 183.438 277.279C188.751 278.9 193.784 280.132 198.169 281.157C206.777 283.11 212.621 283.913 212.621 283.913L213.316 279.662Z" fill="#12372A"/>
<path d="M157.168 265.71L156.529 266.28C156.117 266.657 155.489 266.904 154.785 267.398L153.572 268.065L151.928 268.471L148.498 269.638C147.339 270.019 146.153 270.312 144.95 270.515L141.76 270.982L138.656 271.427L141.791 271.295L145.034 271.227C146.286 271.228 147.537 271.134 148.775 270.945L152.452 270.037L154.183 269.609L155.666 268.922C156.44 268.602 157.192 268.232 157.918 267.816L158.622 267.322L157.168 265.71Z" fill="#12372A"/>
<path d="M206.198 248.973C206.198 248.973 201.178 247.234 193.319 244.225C183.893 240.556 174.667 236.394 165.679 231.757C160.748 229.263 155.979 226.499 151.589 223.779C147.59 221.278 143.731 218.559 140.029 215.635C138.391 214.39 137.044 213.027 135.804 212.096C134.694 211.136 133.644 210.11 132.658 209.023C131.032 207.271 130.051 206.276 130.051 206.276L132.55 209.142C133.459 210.295 134.449 211.383 135.511 212.397C136.707 213.523 138.021 214.94 139.595 216.293C142.753 219.042 146.58 222.083 150.937 225.04C155.294 227.997 159.942 231.02 164.765 233.816C173.59 238.954 182.68 243.624 191.999 247.805C199.597 251.245 204.865 253.243 204.865 253.243L206.198 248.973Z" fill="#12372A"/>
<path d="M198.609 219.547C198.609 219.547 194.712 218.264 188.969 215.833C181.933 212.855 175.121 209.376 168.586 205.422C165.118 203.265 161.767 200.926 158.547 198.415C157.048 197.181 155.485 196.055 154.235 194.897C152.985 193.739 151.638 192.559 150.485 191.24C149.333 189.921 148.471 189.033 147.599 188.103C146.882 187.282 146.21 186.423 145.586 185.53C144.445 184.07 143.821 183.216 143.821 183.216L145.467 185.605C146.016 186.34 146.532 187.313 147.371 188.297L150.117 191.606C151.15 192.817 152.4 193.975 153.65 195.316C154.899 196.658 156.387 197.848 157.82 199.19C160.849 201.788 164.191 204.354 167.631 206.758C174.069 211.082 180.795 214.964 187.761 218.377C193.448 221.143 197.496 222.664 197.496 222.664L198.609 219.547Z" fill="#12372A"/>
<path d="M189.732 184.71C189.732 184.71 188.987 184.482 187.907 184.015C186.326 183.408 184.777 182.719 183.267 181.953C182.284 181.508 181.27 180.933 180.202 180.326C179.067 179.753 177.962 179.124 176.89 178.441C174.491 177.001 172.173 175.431 169.945 173.74C167.667 172.121 165.51 170.342 163.488 168.414C161.632 166.847 159.893 165.148 158.284 163.329L153.514 157.953C153.514 157.953 155.311 160.214 158.013 163.533C159.549 165.455 161.223 167.263 163.022 168.942C164.977 170.983 167.073 172.885 169.294 174.634C171.458 176.456 173.719 178.161 176.065 179.744C177.132 180.535 178.297 181.164 179.333 181.824C180.317 182.469 181.336 183.059 182.386 183.591C184.295 184.632 185.881 185.477 187.112 185.998C188.342 186.519 188.914 186.791 188.914 186.791L189.732 184.71Z" fill="#12372A"/>
</svg>
