<svg width="286" height="293" viewBox="0 0 286 293" fill="none" xmlns="http://www.w3.org/2000/svg">
<path d="M1.86664 167.985C3.01171 171.221 4.47048 175.342 6.16455 180.129L15.8132 180.803C10.0692 175.605 5.30879 171.206 1.86664 167.985Z" fill="#436850" fill-opacity="0.54"/>
<path d="M19.4912 183.84L7.42516 183.124C9.15061 187.999 11.5404 193.337 14.1316 199.102L42.7054 202.903C33.9637 196.023 26.1088 189.527 19.4912 183.84Z" fill="#436850" fill-opacity="0.54"/>
<path d="M47.1945 206.251L15.4211 202.037C19.1758 210.383 23.5976 219.341 28.5871 228.347L69.5383 222.43C61.6726 217.035 54.1785 211.559 47.1945 206.251Z" fill="#436850" fill-opacity="0.54"/>
<path d="M1.82485 162.066C5.17804 165.317 11.1678 170.927 19.2711 177.983L17.2377 160.501C12.1725 160.897 7.0497 161.413 1.82485 162.066Z" fill="#436850" fill-opacity="0.54"/>
<path d="M73.0251 224.786L30.1535 230.933C33.7858 237.378 37.7451 243.756 41.8955 249.967L97.4256 239.988C90.3733 235.901 74.4586 225.725 73.0251 224.786Z" fill="#436850" fill-opacity="0.54"/>
<path d="M101.297 242.158L43.6708 252.58C48.4079 259.406 53.6145 265.895 59.2533 272L127.26 255.411C118.221 251.229 109.581 246.757 101.297 242.158Z" fill="#436850" fill-opacity="0.54"/>
<path d="M20.0664 160.297L22.3162 180.795C29.3995 186.666 37.4244 193.501 46.6474 200.609L38.3307 159.717C32.5121 159.682 26.3691 159.862 20.0664 160.297Z" fill="#436850" fill-opacity="0.54"/>
<path d="M131.451 257.069L61.4692 274.159C68.8968 282.03 77.5192 288.688 87.0222 293.889L157.375 266.395C148.555 263.801 139.899 260.687 131.451 257.069Z" fill="#436850" fill-opacity="0.54"/>
<path d="M41.3748 159.688L50.2142 203.187C57.1092 208.527 64.6767 213.927 72.5423 219.322L66.017 161.289C57.8411 160.29 49.6137 159.755 41.3748 159.688Z" fill="#436850" fill-opacity="0.54"/>
<path d="M161.888 267.691L90.4226 295.578C94.293 297.408 98.3292 298.868 102.477 299.939C127.377 306.087 153.665 296.783 180.512 271.522C174.235 270.601 168.016 269.322 161.888 267.691Z" fill="#436850" fill-opacity="0.54"/>
<path d="M94.1313 167.047L103.693 238.467C112.234 243.224 121.249 247.763 130.433 251.794L116.401 175.522C109.241 172.055 101.789 169.219 94.1313 167.047Z" fill="#436850" fill-opacity="0.54"/>
<path d="M119.7 177.346L133.698 253.381C142.489 257.147 151.514 260.349 160.716 262.968L145.874 195.86C143.857 193.981 141.814 192.31 139.512 190.332C133.338 185.386 126.704 181.038 119.7 177.346Z" fill="#436850" fill-opacity="0.54"/>
<path d="M149.395 199.302L163.882 263.992C170.288 265.664 176.792 266.942 183.356 267.822C179.397 242.021 167.536 218.089 149.395 199.302Z" fill="#436850" fill-opacity="0.54"/>
<path d="M68.7241 161.727L75.4583 221.482C76.8159 222.348 93.1229 232.784 100.476 237.013L90.9402 166.232C83.6403 164.257 76.2197 162.752 68.7241 161.727Z" fill="#436850" fill-opacity="0.54"/>
<path d="M203.771 4.98443C202.212 8.04216 200.227 11.9376 197.922 16.4613L204.075 23.9238C203.891 16.1792 203.805 9.69786 203.771 4.98443Z" fill="#436850" fill-opacity="0.55"/>
<path d="M204.404 28.6826L196.617 19.4378C194.269 24.0453 192.043 29.4535 189.645 35.302L206.559 58.6432C205.531 47.5664 204.835 37.3974 204.404 28.6826Z" fill="#436850" fill-opacity="0.55"/>
<path d="M207.221 64.2041L188.404 38.2575C184.935 46.7263 181.482 56.1 178.385 65.9188L210.868 91.5482C209.366 82.1293 208.179 72.9237 207.221 64.2041Z" fill="#436850" fill-opacity="0.55"/>
<path d="M208.035 0.879025C207.985 5.54961 208.04 13.756 208.501 24.4909L219.781 10.9805C216.007 7.57958 212.106 4.21955 208.035 0.879025Z" fill="#436850" fill-opacity="0.55"/>
<path d="M211.56 95.6993L177.587 68.8359C175.414 75.9068 173.513 83.1695 171.865 90.4556L217.331 123.862C215.441 115.934 211.865 97.3853 211.56 95.6993Z" fill="#436850" fill-opacity="0.55"/>
<path d="M218.422 128.164L171.192 93.5423C169.502 101.677 168.38 109.92 167.834 118.213L226.683 156.119C223.494 146.684 220.79 137.339 218.422 128.164Z" fill="#436850" fill-opacity="0.55"/>
<path d="M221.876 12.892L208.558 28.6352C209.175 37.8146 209.743 48.3401 210.936 59.9234L234.87 25.7402C230.89 21.4957 226.531 17.1637 221.876 12.892Z" fill="#436850" fill-opacity="0.55"/>
<path d="M228.365 160.301L167.793 121.307C167.198 132.113 168.305 142.95 171.074 153.424L239.448 185.524C235.258 177.341 231.557 168.918 228.365 160.301Z" fill="#436850" fill-opacity="0.55"/>
<path d="M236.987 27.9278L211.522 64.2852C212.396 72.962 213.688 82.1686 215.19 91.5875L252.79 46.9034C247.886 40.2854 242.61 33.95 236.987 27.9278Z" fill="#436850" fill-opacity="0.55"/>
<path d="M241.615 189.689L172.19 157.053C173.527 161.119 175.247 165.052 177.325 168.798C190.008 191.091 214.853 203.753 251.658 205.835C248.004 200.648 244.651 195.257 241.615 189.689Z" fill="#436850" fill-opacity="0.55"/>
<path d="M267.969 71.2587L222.749 127.362C225.178 136.831 228.092 146.494 231.491 155.93L277.153 93.2459C274.738 85.6658 271.665 78.3088 267.969 71.2587Z" fill="#436850" fill-opacity="0.55"/>
<path d="M278.1 96.8949L232.588 159.391C235.908 168.36 239.798 177.11 244.234 185.588L282.69 128.624C282.665 125.868 282.47 123.236 282.32 120.204C281.657 112.321 280.244 104.516 278.1 96.8949Z" fill="#436850" fill-opacity="0.55"/>
<path d="M282.618 133.547L245.67 188.589C248.868 194.386 252.418 199.984 256.3 205.351C272.288 184.717 281.48 159.638 282.618 133.547Z" fill="#436850" fill-opacity="0.55"/>
<path d="M254.336 49.1686L215.631 95.1892C215.938 96.77 219.594 115.782 221.589 124.027L266.363 68.3833C262.77 61.7291 258.753 55.311 254.336 49.1686Z" fill="#436850" fill-opacity="0.55"/>
<path d="M17.0471 64.0555C17.0471 64.0555 45.6115 91.3921 89.2602 167.851C132.909 244.309 210.712 309.436 278.409 283.435C278.409 283.435 340.641 102.491 17.0471 64.0555Z" fill="#739072"/>
<path d="M89.458 102.97C132.235 138.209 173.783 175.178 213.329 213.825C251.327 253.33 293.479 291.917 317.047 342.458C296.457 290.51 253.803 250.896 214.931 212.193C174.914 173.756 132.947 137.395 89.1941 103.253L89.458 102.97Z" fill="#12372A"/>
<path d="M242.539 239.323C241.792 223.653 240.051 208.047 237.324 192.6C236.289 186.835 235.043 181.062 233.589 175.762C232.821 173.09 232.09 170.545 231.395 168.127C230.7 165.709 230.041 163.418 228.992 161.446C228.263 159.57 227.415 157.743 226.453 155.976C225.835 154.566 225.099 153.21 224.253 151.924C222.875 149.771 222.045 148.563 222.045 148.563C222.045 148.563 222.811 149.789 224.144 152.024C224.966 153.32 225.681 154.681 226.28 156.095C226.774 157.813 227.878 159.493 228.563 161.638C229.249 163.783 230.19 165.855 230.502 168.383C230.814 170.911 231.929 173.346 232.697 176.019C234.196 181.237 235.041 187.056 235.885 192.876C236.729 198.695 237.491 204.47 238.016 209.899C238.541 215.328 238.911 220.457 239.143 224.868C239.653 233.608 239.678 239.456 239.678 239.456L242.539 239.323Z" fill="#12372A"/>
<path d="M235.1 181.253L235.664 180.333C236.157 179.441 236.583 178.512 236.937 177.556C237.419 176.242 237.793 174.891 238.053 173.516C238.248 172.77 238.4 172.013 238.507 171.25C238.305 170.55 238.66 169.621 238.714 168.848C238.824 168.058 238.872 167.262 238.857 166.465L238.809 164.136C238.744 163.411 238.719 162.682 238.734 161.953L238.203 160.108C237.882 157.789 237.635 156.207 237.635 156.207C237.635 156.207 237.736 157.762 237.948 160.181C238.095 160.69 238.278 161.327 238.078 162.073C237.878 162.819 238.061 163.456 238.007 164.229L237.891 166.467C237.869 167.259 237.772 168.048 237.602 168.823L237.295 171.116L236.677 173.291C236.293 174.546 235.841 175.78 235.324 176.987C234.796 178.034 234.36 178.917 234.023 179.427L233.423 180.22L235.1 181.253Z" fill="#12372A"/>
<path d="M203.861 202.493C203.322 190.919 202.038 179.392 200.017 167.983C199.275 163.719 198.341 159.509 197.271 155.546C196.704 153.573 196.174 151.728 195.643 149.883C195.113 148.037 194.656 146.447 193.816 144.966C192.976 143.485 192.528 142.167 191.971 140.949C191.507 139.918 190.967 138.922 190.356 137.969L188.74 135.471L190.228 138.006C190.872 138.961 191.399 139.988 191.798 141.068C192.453 142.382 193.027 143.736 193.516 145.121C193.954 146.648 194.448 148.366 194.96 150.148C195.472 151.93 196.003 153.775 196.57 155.748C197.685 159.629 198.3 163.93 198.961 168.149C199.621 172.368 200.108 176.706 200.523 180.789C200.937 184.872 201.178 188.592 201.336 191.784C201.826 198.532 201.739 202.552 201.739 202.552L203.861 202.493Z" fill="#12372A"/>
<path d="M242.711 238.722C227.112 241.14 211.373 242.534 195.593 242.896C189.689 243.008 183.794 242.911 178.291 242.495C175.566 242.383 172.914 242.042 170.363 241.811C167.812 241.58 165.524 241.066 163.164 240.78C161.185 240.421 159.229 239.948 157.304 239.365C155.802 239.044 154.332 238.591 152.911 238.009L149.111 236.553L152.939 237.864C154.574 238.414 156.258 238.806 157.969 239.036C159.898 239.559 161.858 239.961 163.838 240.242C165.988 240.52 168.321 240.951 170.982 241.082C173.643 241.213 176.148 241.526 178.918 241.557C184.367 241.782 190.225 241.752 196.074 241.448C201.923 241.145 207.8 240.696 213.238 240.166C218.677 239.636 223.806 238.989 228.115 238.371C236.86 237.097 242.554 236.012 242.554 236.012L242.711 238.722Z" fill="#12372A"/>
<path d="M205.021 205.329C193.567 207.109 182.008 208.13 170.42 208.384C166.16 208.516 161.897 208.431 157.646 208.129C155.632 208.088 153.609 207.774 151.769 207.614C149.928 207.454 148.224 207.048 146.575 206.833C145.123 206.568 143.687 206.221 142.273 205.796C141.146 205.569 140.048 205.214 139.001 204.739L136.212 203.681L139.047 204.657C140.093 205.069 141.176 205.38 142.282 205.587C143.705 205.973 145.151 206.271 146.611 206.479C148.26 206.693 149.946 207.035 151.832 207.113C153.718 207.191 155.659 207.46 157.673 207.501C161.718 207.648 166.064 207.638 170.337 207.375C174.61 207.111 179.029 206.875 183.055 206.475L194.051 205.106C200.683 204.164 204.682 203.428 204.682 203.428L205.021 205.329Z" fill="#12372A"/>
<path d="M161.855 208.366L161.199 208.968C160.648 209.444 160.054 209.869 159.424 210.236C158.541 210.782 157.615 211.255 156.656 211.651L154.998 212.128L153.276 212.622C152.723 212.85 152.145 213.016 151.555 213.117L149.961 213.575L148.431 214.015L147 214.082L144.076 214.233L146.946 213.891L148.348 213.488L151.472 212.59C152.033 212.462 152.587 212.303 153.13 212.113L154.788 211.637L156.382 211.179C157.24 210.746 158.068 210.255 158.859 209.709C159.41 209.305 159.927 208.856 160.406 208.369L160.952 207.868L161.855 208.366Z" fill="#12372A"/>
</svg>
